REM DIRINDEX 1\2\5,1\2\6,1\3\7,1\3\8,1\4\9,1\4\10
REM DIRNAME cjc079,folder01,folder02,folder03,folder04,folder05,folder06,folder07,folder08,folder09
TITLE ""
FILE "Track36.mp3" MP3
  TRACK 01 AUDIO
    TITLE "10:cjc079_1454"
    INDEX 01 00:00:00
  TRACK 02 AUDIO
    TITLE "10:cjc079_1455"
    INDEX 01 00:02:00
  TRACK 03 AUDIO
    TITLE "9:cjc079_1456"
    INDEX 01 00:04:19
  TRACK 04 AUDIO
    TITLE "0:"
    INDEX 01 00:05:59
  TRACK 05 AUDIO
    TITLE "9:cjc079_1457"
    INDEX 01 00:06:28
  TRACK 06 AUDIO
    TITLE "0:"
    INDEX 01 00:07:68
  TRACK 07 AUDIO
    TITLE "10:cjc079_1458"
    INDEX 01 00:09:38
  TRACK 08 AUDIO
    TITLE "9:cjc079_1459"
    INDEX 01 00:11:74
  TRACK 09 AUDIO
    TITLE "0:"
    INDEX 01 00:13:32
  TRACK 10 AUDIO
    TITLE "9:cjc079_1460"
    INDEX 01 00:14:06
  TRACK 11 AUDIO
    TITLE "0:"
    INDEX 01 00:15:40
  TRACK 12 AUDIO
    TITLE "10:cjc079_1461"
    INDEX 01 00:17:14
  TRACK 13 AUDIO
    TITLE "9:cjc079_1462"
    INDEX 01 00:19:46
  TRACK 14 AUDIO
    TITLE "0:"
    INDEX 01 00:21:04
  TRACK 15 AUDIO
    TITLE "9:cjc079_1463"
    INDEX 01 00:21:51
  TRACK 16 AUDIO
    TITLE "0:"
    INDEX 01 00:23:08
  TRACK 17 AUDIO
    TITLE "10:cjc079_1464"
    INDEX 01 00:24:55
  TRACK 18 AUDIO
    TITLE "9:cjc079_1465"
    INDEX 01 00:27:20
  TRACK 19 AUDIO
    TITLE "0:"
    INDEX 01 00:28:43
  TRACK 20 AUDIO
    TITLE "9:cjc079_1466"
    INDEX 01 00:29:19
  TRACK 21 AUDIO
    TITLE "0:"
    INDEX 01 00:30:46
  TRACK 22 AUDIO
    TITLE "10:cjc079_1467"
    INDEX 01 00:32:21
  TRACK 23 AUDIO
    TITLE "9:cjc079_1468"
    INDEX 01 00:34:55
  TRACK 24 AUDIO
    TITLE "0:"
    INDEX 01 00:36:01
  TRACK 25 AUDIO
    TITLE "9:cjc079_1469"
    INDEX 01 00:36:48
  TRACK 26 AUDIO
    TITLE "0:"
    INDEX 01 00:37:71
  TRACK 27 AUDIO
    TITLE "10:cjc079_1470"
    INDEX 01 00:39:45
  TRACK 28 AUDIO
    TITLE "9:cjc079_1471"
    INDEX 01 00:41:61
  TRACK 29 AUDIO
    TITLE "0:"
    INDEX 01 00:43:11
  TRACK 30 AUDIO
    TITLE "9:cjc079_1472"
    INDEX 01 00:43:56
  TRACK 31 AUDIO
    TITLE "0:"
    INDEX 01 00:45:04
  TRACK 32 AUDIO
    TITLE "10:cjc079_1473"
    INDEX 01 00:46:53
  TRACK 33 AUDIO
    TITLE "9:cjc079_1474"
    INDEX 01 00:49:16
  TRACK 34 AUDIO
    TITLE "0:"
    INDEX 01 00:50:50
  TRACK 35 AUDIO
    TITLE "9:cjc079_1475"
    INDEX 01 00:51:20
  TRACK 36 AUDIO
    TITLE "0:"
    INDEX 01 00:52:55
  TRACK 37 AUDIO
    TITLE "10:cjc079_1476"
    INDEX 01 00:54:27
  TRACK 38 AUDIO
    TITLE "9:cjc079_1477"
    INDEX 01 00:56:59
  TRACK 39 AUDIO
    TITLE "0:"
    INDEX 01 00:58:07
  TRACK 40 AUDIO
    TITLE "9:cjc079_1478"
    INDEX 01 00:58:58
  TRACK 41 AUDIO
    TITLE "0:"
    INDEX 01 01:00:04
  TRACK 42 AUDIO
    TITLE "10:cjc079_1479"
    INDEX 01 01:01:56
  TRACK 43 AUDIO
    TITLE "9:cjc079_1480"
    INDEX 01 01:04:23
  TRACK 44 AUDIO
    TITLE "0:"
    INDEX 01 01:05:52
  TRACK 45 AUDIO
    TITLE "9:cjc079_1481"
    INDEX 01 01:06:36
  TRACK 46 AUDIO
    TITLE "0:"
    INDEX 01 01:07:63
  TRACK 47 AUDIO
    TITLE "10:cjc079_1482"
    INDEX 01 01:09:40
  TRACK 48 AUDIO
    TITLE "9:cjc079_1483"
    INDEX 01 01:12:01
  TRACK 49 AUDIO
    TITLE "0:"
    INDEX 01 01:13:16
  TRACK 50 AUDIO
    TITLE "9:cjc079_1484"
    INDEX 01 01:13:67
  TRACK 51 AUDIO
    TITLE "0:"
    INDEX 01 01:15:11
  TRACK 52 AUDIO
    TITLE "10:cjc079_1485"
    INDEX 01 01:16:60
  TRACK 53 AUDIO
    TITLE "9:cjc079_1486"
    INDEX 01 01:19:17
  TRACK 54 AUDIO
    TITLE "0:"
    INDEX 01 01:20:32
  TRACK 55 AUDIO
    TITLE "9:cjc079_1487"
    INDEX 01 01:21:02
  TRACK 56 AUDIO
    TITLE "0:"
    INDEX 01 01:22:17
  TRACK 57 AUDIO
    TITLE "10:cjc079_1488"
    INDEX 01 01:23:62
  TRACK 58 AUDIO
    TITLE "9:cjc079_1489"
    INDEX 01 01:26:29
  TRACK 59 AUDIO
    TITLE "0:"
    INDEX 01 01:27:46
  TRACK 60 AUDIO
    TITLE "9:cjc079_1490"
    INDEX 01 01:28:14
  TRACK 61 AUDIO
    TITLE "0:"
    INDEX 01 01:29:31
  TRACK 62 AUDIO
    TITLE "10:cjc079_1491"
    INDEX 01 01:31:00
  TRACK 63 AUDIO
    TITLE "9:cjc079_1492"
    INDEX 01 01:33:46
  TRACK 64 AUDIO
    TITLE "0:"
    INDEX 01 01:34:65
  TRACK 65 AUDIO
    TITLE "9:cjc079_1493"
    INDEX 01 01:35:39
  TRACK 66 AUDIO
    TITLE "0:"
    INDEX 01 01:36:58
  TRACK 67 AUDIO
    TITLE "10:cjc079_1494"
    INDEX 01 01:38:32
  TRACK 68 AUDIO
    TITLE "9:cjc079_1495"
    INDEX 01 01:41:10
  TRACK 69 AUDIO
    TITLE "0:"
    INDEX 01 01:42:31
  TRACK 70 AUDIO
    TITLE "9:cjc079_1496"
    INDEX 01 01:43:02
  TRACK 71 AUDIO
    TITLE "0:"
    INDEX 01 01:44:23
  TRACK 72 AUDIO
    TITLE "10:cjc079_1497"
    INDEX 01 01:45:71
  TRACK 73 AUDIO
    TITLE "9:cjc079_1498"
    INDEX 01 01:48:40
  TRACK 74 AUDIO
    TITLE "0:"
    INDEX 01 01:49:55
  TRACK 75 AUDIO
    TITLE "9:cjc079_1499"
    INDEX 01 01:50:33
  TRACK 76 AUDIO
    TITLE "0:"
    INDEX 01 01:51:50
  TRACK 77 AUDIO
    TITLE "10:cjc079_1500"
    INDEX 01 01:53:23
  TRACK 78 AUDIO
    TITLE "9:cjc079_1501"
    INDEX 01 01:55:40
  TRACK 79 AUDIO
    TITLE "0:"
    INDEX 01 01:56:55
  TRACK 80 AUDIO
    TITLE "9:cjc079_1502"
    INDEX 01 01:57:31
  TRACK 81 AUDIO
    TITLE "0:"
    INDEX 01 01:58:44
  TRACK 82 AUDIO
    TITLE "10:cjc079_1503"
    INDEX 01 02:00:20
  TRACK 83 AUDIO
    TITLE "9:cjc079_1504"
    INDEX 01 02:02:62
  TRACK 84 AUDIO
    TITLE "0:"
    INDEX 01 02:04:31
  TRACK 85 AUDIO
    TITLE "9:cjc079_1505"
    INDEX 01 02:04:74
  TRACK 86 AUDIO
    TITLE "0:"
    INDEX 01 02:06:46
  TRACK 87 AUDIO
    TITLE "10:cjc079_1506"
    INDEX 01 02:08:19
  TRACK 88 AUDIO
    TITLE "9:cjc079_1507"
    INDEX 01 02:10:53
  TRACK 89 AUDIO
    TITLE "0:"
    INDEX 01 02:12:31
  TRACK 90 AUDIO
    TITLE "9:cjc079_1508"
    INDEX 01 02:13:03
  TRACK 91 AUDIO
    TITLE "0:"
    INDEX 01 02:14:55
  TRACK 92 AUDIO
    TITLE "10:cjc079_1509"
    INDEX 01 02:16:24
  TRACK 93 AUDIO
    TITLE "9:cjc079_1510"
    INDEX 01 02:18:68
  TRACK 94 AUDIO
    TITLE "0:"
    INDEX 01 02:20:34
  TRACK 95 AUDIO
    TITLE "9:cjc079_1511"
    INDEX 01 02:21:06
  TRACK 96 AUDIO
    TITLE "0:"
    INDEX 01 02:22:49
  TRACK 97 AUDIO
    TITLE "10:cjc079_1512"
    INDEX 01 02:24:20
  TRACK 98 AUDIO
    TITLE "9:cjc079_1513"
    INDEX 01 02:26:54
  TRACK 99 AUDIO
    TITLE "0:"
    INDEX 01 02:28:20
  TRACK 100 AUDIO
    TITLE "9:cjc079_1514"
    INDEX 01 02:28:71
  TRACK 101 AUDIO
    TITLE "0:"
    INDEX 01 02:30:38
  TRACK 102 AUDIO
    TITLE "10:cjc079_1515"
    INDEX 01 02:32:12
  TRACK 103 AUDIO
    TITLE "9:cjc079_1516"
    INDEX 01 02:34:40
  TRACK 104 AUDIO
    TITLE "0:"
    INDEX 01 02:36:13
  TRACK 105 AUDIO
    TITLE "9:cjc079_1517"
    INDEX 01 02:36:59
  TRACK 106 AUDIO
    TITLE "0:"
    INDEX 01 02:38:28
  TRACK 107 AUDIO
    TITLE "10:cjc079_1518"
    INDEX 01 02:40:01
  TRACK 108 AUDIO
    TITLE "9:cjc079_1519"
    INDEX 01 02:42:43
  TRACK 109 AUDIO
    TITLE "0:"
    INDEX 01 02:44:17
  TRACK 110 AUDIO
    TITLE "9:cjc079_1520"
    INDEX 01 02:44:68
  TRACK 111 AUDIO
    TITLE "0:"
    INDEX 01 02:46:43
  TRACK 112 AUDIO
    TITLE "10:cjc079_1521"
    INDEX 01 02:48:19
  TRACK 113 AUDIO
    TITLE "9:cjc079_1522"
    INDEX 01 02:50:61
  TRACK 114 AUDIO
    TITLE "0:"
    INDEX 01 02:52:26
  TRACK 115 AUDIO
    TITLE "9:cjc079_1523"
    INDEX 01 02:53:00
  TRACK 116 AUDIO
    TITLE "0:"
    INDEX 01 02:54:41
  TRACK 117 AUDIO
    TITLE "10:cjc079_1524"
    INDEX 01 02:56:14
  TRACK 118 AUDIO
    TITLE "9:cjc079_1525"
    INDEX 01 02:58:58
  TRACK 119 AUDIO
    TITLE "0:"
    INDEX 01 03:00:26
  TRACK 120 AUDIO
    TITLE "9:cjc079_1526"
    INDEX 01 03:01:00
  TRACK 121 AUDIO
    TITLE "0:"
    INDEX 01 03:02:40
  TRACK 122 AUDIO
    TITLE "10:cjc079_1527"
    INDEX 01 03:04:20
  TRACK 123 AUDIO
    TITLE "9:cjc079_1528"
    INDEX 01 03:06:66
  TRACK 124 AUDIO
    TITLE "0:"
    INDEX 01 03:08:25
  TRACK 125 AUDIO
    TITLE "9:cjc079_1529"
    INDEX 01 03:08:74
  TRACK 126 AUDIO
    TITLE "0:"
    INDEX 01 03:10:34
  TRACK 127 AUDIO
    TITLE "10:cjc079_1530"
    INDEX 01 03:12:11
  TRACK 128 AUDIO
    TITLE "9:cjc079_1531"
    INDEX 01 03:14:12
  TRACK 129 AUDIO
    TITLE "0:"
    INDEX 01 03:15:43
  TRACK 130 AUDIO
    TITLE "9:cjc079_1532"
    INDEX 01 03:16:17
  TRACK 131 AUDIO
    TITLE "0:"
    INDEX 01 03:17:50
  TRACK 132 AUDIO
    TITLE "10:cjc079_1533"
    INDEX 01 03:19:23
  TRACK 133 AUDIO
    TITLE "9:cjc079_1534"
    INDEX 01 03:21:53
  TRACK 134 AUDIO
    TITLE "0:"
    INDEX 01 03:23:23
  TRACK 135 AUDIO
    TITLE "9:cjc079_1535"
    INDEX 01 03:23:74
  TRACK 136 AUDIO
    TITLE "0:"
    INDEX 01 03:25:43
  TRACK 137 AUDIO
    TITLE "10:cjc079_1536"
    INDEX 01 03:27:25
  TRACK 138 AUDIO
    TITLE "9:cjc079_1537"
    INDEX 01 03:29:45
  TRACK 139 AUDIO
    TITLE "0:"
    INDEX 01 03:31:15
  TRACK 140 AUDIO
    TITLE "9:cjc079_1538"
    INDEX 01 03:31:69
  TRACK 141 AUDIO
    TITLE "0:"
    INDEX 01 03:33:37
  TRACK 142 AUDIO
    TITLE "10:cjc079_1539"
    INDEX 01 03:35:16
  TRACK 143 AUDIO
    TITLE "9:cjc079_1540"
    INDEX 01 03:37:45
  TRACK 144 AUDIO
    TITLE "0:"
    INDEX 01 03:39:04
  TRACK 145 AUDIO
    TITLE "9:cjc079_1541"
    INDEX 01 03:39:51
  TRACK 146 AUDIO
    TITLE "0:"
    INDEX 01 03:41:13
  TRACK 147 AUDIO
    TITLE "10:cjc079_1542"
    INDEX 01 03:42:59
  TRACK 148 AUDIO
    TITLE "9:cjc079_1543"
    INDEX 01 03:45:11
  TRACK 149 AUDIO
    TITLE "0:"
    INDEX 01 03:46:49
  TRACK 150 AUDIO
    TITLE "9:cjc079_1544"
    INDEX 01 03:47:27
  TRACK 151 AUDIO
    TITLE "0:"
    INDEX 01 03:48:64
  TRACK 152 AUDIO
    TITLE "10:cjc079_1545"
    INDEX 01 03:50:41
  TRACK 153 AUDIO
    TITLE "9:cjc079_1546"
    INDEX 01 03:52:64
  TRACK 154 AUDIO
    TITLE "0:"
    INDEX 01 03:54:25
  TRACK 155 AUDIO
    TITLE "9:cjc079_1547"
    INDEX 01 03:55:01
  TRACK 156 AUDIO
    TITLE "0:"
    INDEX 01 03:56:38
  TRACK 157 AUDIO
    TITLE "10:cjc079_1548"
    INDEX 01 03:58:13
  TRACK 158 AUDIO
    TITLE "9:cjc079_1549"
    INDEX 01 04:00:48
  TRACK 159 AUDIO
    TITLE "0:"
    INDEX 01 04:02:11
  TRACK 160 AUDIO
    TITLE "9:cjc079_1550"
    INDEX 01 04:02:58
  TRACK 161 AUDIO
    TITLE "0:"
    INDEX 01 04:04:20
